<?xml version="1.0" encoding="UTF-8"?>
<svg id="_图层_2" data-name="图层 2" xmlns="http://www.w3.org/2000/svg" viewBox="0 0 354.9 295.83">
  <defs>
    <style>
      .cls-1 {
        fill: #231815;
      }
    </style>
  </defs>
  <g id="_图层_1-2" data-name="图层 1">
    <path class="cls-1" d="M321.7,4.36c1.21-1.89-.15-4.36-2.39-4.36h-97.07c-5.69,0-11,2.84-14.15,7.57l-31.45,47.17c-1.12,1.68-3.59,1.68-4.72,0l-31.45-47.17c-3.15-4.73-8.46-7.57-14.15-7.57H56.17C27.33,0,5.97,14.04.12,34.05c-.53,1.83.82,3.66,2.72,3.66h109.67c.95,0,1.85.48,2.37,1.28l59.45,90.51c1.12,1.7,3.62,1.7,4.74,0l59.45-90.51c.52-.8,1.41-1.28,2.37-1.28h12.24c2.25,0,3.6,2.49,2.38,4.38l-64.95,100.02h0l-11.49,17.24c-1.12,1.68-3.59,1.68-4.72,0l-11.49-17.24h0l-56.23-86.59c-.52-.81-1.42-1.29-2.38-1.29H4.56c-2.23,0-3.59,2.46-2.4,4.34l136.23,216.39c17.91,27.87,58.51,27.79,76.54,0l130.39-201.26c15.19-23.42,11.28-45.45-4.39-59.22-1.28-1.13-3.28-.82-4.22.61l-146.15,224.9h0l-11.5,17.24c-1.12,1.68-3.59,1.68-4.72,0l-11.5-17.24L69.31,96.17c-1.23-1.89.13-4.38,2.38-4.38h11.93c.95,0,1.84.48,2.37,1.28l88.31,134.28c1.13,1.72,3.65,1.7,4.76-.03L321.71,4.36h0Z"/>
  </g>
</svg>